<?xml version="1.0" encoding="UTF-8"?>
<!DOCTYPE svg PUBLIC "-//W3C//DTD SVG 1.1//EN" "http://www.w3.org/Graphics/SVG/1.1/DTD/svg11.dtd">
<!-- Creator: CorelDRAW -->
<svg xmlns="http://www.w3.org/2000/svg" xml:space="preserve" width="641px" height="90px" version="1.1" style="shape-rendering:geometricPrecision; text-rendering:geometricPrecision; image-rendering:optimizeQuality; fill-rule:evenodd; clip-rule:evenodd"
viewBox="0 0 40.24 5.65"
 xmlns:xlink="http://www.w3.org/1999/xlink"
 xmlns:xodm="http://www.corel.com/coreldraw/odm/2003">
 <defs>
  <style type="text/css">
   <![CDATA[
    .fil1 {fill:black}
    .fil0 {fill:#00ACED}
    .fil2 {fill:black;fill-rule:nonzero}
   ]]>
  </style>
 </defs>
 <g id="Layer_x0020_1">
  <metadata id="CorelCorpID_0Corel-Layer"/>
  <path class="fil0" d="M6.19 5.63l-3.09 -5.39 -0.55 0.95 0 0.01 -0.01 0 -1.33 2.32 -0.58 1 -0.24 0.43 -0.39 0.68 1.15 0 0.64 -1.11 2.67 0 0.64 1.11 0.15 0 0.29 0 0.65 0zm-3.83 -2.11l0.76 -1.32 0.76 1.32 -1.52 0z"/>
  <polygon class="fil0" points="4.18,1.2 6.71,5.6 7.28,4.63 5.31,1.2 5.82,1.2 7.54,4.2 8.12,3.23 6.95,1.2 7.45,1.2 8.37,2.8 8.95,1.82 8.05,0.24 6.9,0.24 6.4,0.24 4.04,0.24 3.74,0.24 3.63,0.24 "/>
  <polygon class="fil1" points="8.55,0.24 9.21,1.39 9.89,0.24 "/>
  <path class="fil0" d="M9.81 1.2l-2.63 4.43 0.22 0 0.35 0 0.58 0 0.65 -1.11 2.66 0 0.64 1.11 0.36 0 0.78 0 -0.39 -0.68 -0.25 -0.43 -0.57 -1 -1.29 -2.25 -0.05 -0.07 -0.52 -0.91 -0.54 0.91zm0.53 1.05l0.73 1.27 -1.49 0 0.76 -1.27z"/>
  <polygon class="fil1" points="4.61,5.63 4.22,4.95 2.03,4.95 1.64,5.63 1.69,5.63 1.99,5.63 "/>
  <polygon class="fil1" points="9.29,4.95 8.88,5.63 9.15,5.63 9.56,5.63 11.78,5.63 11.39,4.95 11.25,4.95 10.42,4.95 "/>
  <path class="fil2" d="M19.4 4.66c-0.36,0.32 -0.77,0.56 -1.22,0.73 -0.46,0.17 -0.93,0.25 -1.42,0.25 -0.38,0 -0.73,-0.05 -1.05,-0.16 -0.32,-0.1 -0.61,-0.26 -0.86,-0.47 -0.34,-0.27 -0.59,-0.59 -0.76,-0.96 -0.16,-0.36 -0.25,-0.78 -0.25,-1.25 0,-0.4 0.09,-0.79 0.26,-1.16 0.16,-0.37 0.4,-0.69 0.7,-0.95 0.26,-0.22 0.56,-0.39 0.89,-0.51 0.34,-0.11 0.7,-0.17 1.08,-0.17 0.5,0 0.93,0.1 1.3,0.29 0.36,0.2 0.68,0.51 0.95,0.92l-0.69 0.5c-0.16,-0.34 -0.36,-0.61 -0.6,-0.78 -0.23,-0.18 -0.5,-0.26 -0.81,-0.26 -0.46,0 -0.82,0.18 -1.08,0.56 -0.25,0.37 -0.38,0.9 -0.38,1.59 0,0.62 0.15,1.13 0.43,1.51 0.29,0.39 0.66,0.59 1.12,0.59 0.18,0 0.34,-0.03 0.49,-0.08 0.15,-0.06 0.29,-0.13 0.44,-0.24l0 -1.5 1.46 0 0 1.55z"/>
  <path id="_1" class="fil2" d="M21.13 3.23l1.33 0 -0.7 -1.93 -0.63 1.93zm-1.54 2.28l1.85 -5.39 1.46 0 1.97 5.39 -1.6 0 -0.57 -1.59 -1.81 0 -0.53 1.59 -0.77 0z"/>
  <polygon id="_2" class="fil2" points="25.5,5.51 25.5,0.12 26.91,0.12 28.12,3.03 29.33,0.12 30.8,0.12 30.8,5.51 29.3,5.51 29.3,1.97 27.85,5.51 27.7,5.51 26.28,2.13 26.28,5.51 "/>
  <polygon id="_3" class="fil2" points="32.11,5.51 32.11,0.12 35.48,0.12 35.48,0.85 33.62,0.85 33.62,2.42 35.38,2.42 35.38,3.14 33.62,3.14 33.62,4.78 35.58,4.78 35.58,5.51 "/>
  <path id="_4" class="fil2" d="M37.13 4.14c0.11,0.26 0.25,0.46 0.41,0.6 0.17,0.14 0.35,0.21 0.55,0.21 0.2,0 0.37,-0.06 0.5,-0.18 0.13,-0.12 0.2,-0.27 0.2,-0.46 0,-0.14 -0.05,-0.28 -0.15,-0.4 -0.1,-0.12 -0.26,-0.24 -0.49,-0.36l-0.21 -0.12c-0.49,-0.26 -0.78,-0.43 -0.88,-0.52 -0.21,-0.17 -0.35,-0.35 -0.44,-0.53 -0.08,-0.17 -0.12,-0.38 -0.12,-0.61 0,-0.52 0.17,-0.95 0.52,-1.28 0.35,-0.32 0.8,-0.49 1.36,-0.49 0.39,0 0.73,0.09 1.03,0.27 0.3,0.18 0.53,0.43 0.69,0.77l-0.61 0.43c-0.11,-0.26 -0.24,-0.45 -0.41,-0.58 -0.16,-0.13 -0.36,-0.2 -0.59,-0.2 -0.19,0 -0.35,0.06 -0.47,0.18 -0.13,0.12 -0.19,0.27 -0.19,0.44 0,0.15 0.05,0.29 0.16,0.4 0.1,0.11 0.3,0.24 0.59,0.4l0.1 0.05c0.56,0.27 0.89,0.45 1,0.55 0.2,0.16 0.34,0.33 0.43,0.52 0.09,0.18 0.13,0.39 0.13,0.63 0,0.53 -0.18,0.96 -0.55,1.29 -0.37,0.33 -0.85,0.5 -1.44,0.5 -0.43,0 -0.8,-0.09 -1.12,-0.28 -0.33,-0.18 -0.57,-0.44 -0.74,-0.78l0.74 -0.45z"/>
 </g>
</svg>
