<?xml version="1.0" encoding="UTF-8"?>
<!DOCTYPE svg PUBLIC "-//W3C//DTD SVG 1.1//EN" "http://www.w3.org/Graphics/SVG/1.1/DTD/svg11.dtd">
<!-- Creator: CorelDRAW -->
<svg xmlns="http://www.w3.org/2000/svg" xml:space="preserve" width="989px" height="989px" version="1.1" style="shape-rendering:geometricPrecision; text-rendering:geometricPrecision; image-rendering:optimizeQuality; fill-rule:evenodd; clip-rule:evenodd"
viewBox="0 0 166.87 166.87"
 xmlns:xlink="http://www.w3.org/1999/xlink"
 xmlns:xodm="http://www.corel.com/coreldraw/odm/2003">
 <defs>
  <style type="text/css">
   <![CDATA[
    .str0 {stroke:#00ACED;stroke-width:0.35;stroke-miterlimit:2.61313}
    .fil1 {fill:#FEFEFE}
    .fil0 {fill:black}
    .fil2 {fill:#00ACED}
   ]]>
  </style>
 </defs>
 <g id="Layer_x0020_1">
  <metadata id="CorelCorpID_0Corel-Layer"/>
  <circle class="fil0 str0" cx="83.44" cy="83.44" r="83.26"/>
  <path class="fil1" d="M77.64 110.13l-34.56 -60.14 -6.11 10.64 0.02 0.05 -0.05 0 -14.89 25.91 -6.44 11.21 -2.71 4.72 -4.38 7.61 12.86 0 7.08 -12.33 29.86 0 7.09 12.33 1.69 0 3.31 0 7.23 0zm-42.74 -23.54l8.49 -14.78 8.49 14.78 -16.98 0z"/>
  <polygon class="fil1" points="55.22,60.68 83.45,109.81 89.85,99.03 67.82,60.68 73.46,60.68 92.72,94.19 99.14,83.38 86.1,60.68 91.67,60.68 101.97,78.61 108.5,67.62 98.37,49.99 85.53,49.99 79.96,49.99 53.67,49.99 50.28,49.99 49.08,49.99 "/>
  <polygon class="fil2" points="103.95,49.99 111.34,62.85 118.97,49.99 "/>
  <path class="fil1" d="M118.08 60.68l-29.36 49.45 2.37 0 3.96 0 6.46 0 7.32 -12.33 29.69 0 7.09 12.33 4.06 0 8.68 0 -4.38 -7.61 -2.71 -4.72 -6.44 -11.21 -14.43 -25.11 -0.46 -0.8 -5.83 -10.14 -6.02 10.14zm5.84 11.7l8.16 14.21 -16.6 0 8.44 -14.21z"/>
  <polygon class="fil2" points="60.03,110.13 55.65,102.52 31.19,102.52 26.81,110.13 27.35,110.13 30.69,110.13 "/>
  <polygon class="fil2" points="112.24,102.52 107.71,110.13 110.65,110.13 115.29,110.13 140.09,110.13 135.72,102.52 134.13,102.52 124.82,102.52 "/>
 </g>
</svg>
